<svg width="26" height="30" viewBox="0 0 26 30" fill="none" xmlns="http://www.w3.org/2000/svg">
<path d="M12.9938 0C6.36491 0 0.968689 5.39623 0.968689 12.0252C0.968689 12.7799 1.03787 13.5409 1.18253 14.283C1.18881 14.327 1.21397 14.4591 1.26429 14.6855C1.44668 15.4969 1.71712 16.2956 2.06932 17.0566C3.36491 20.1069 6.21397 24.7925 12.4655 29.8113C12.6228 29.9371 12.8115 30 13.0001 30C13.1888 30 13.3775 29.9371 13.5347 29.8113C19.78 24.7925 22.6353 20.1069 23.9309 17.0566C24.2831 16.2956 24.5536 15.5031 24.736 14.6855C24.7863 14.4591 24.8115 14.327 24.8177 14.283C24.9561 13.5409 25.0316 12.7799 25.0316 12.0252C25.019 5.39623 19.6228 0 12.9938 0ZM23.1322 13.9874C23.1322 14 23.1259 14.0126 23.1259 14.0252C23.1196 14.0566 23.1008 14.1509 23.0693 14.2956C23.0693 14.3019 23.0693 14.3019 23.0693 14.3082C22.9121 15.0126 22.6794 15.6981 22.3712 16.3585C22.3649 16.3648 22.3649 16.3774 22.3586 16.3836C21.1825 19.1698 18.6039 23.4214 12.9938 28.0566C7.38378 23.4214 4.80517 19.1698 3.62907 16.3836C3.62278 16.3774 3.62278 16.3648 3.61649 16.3585C3.3146 15.7044 3.0819 15.0126 2.91837 14.3082C2.91837 14.3019 2.91837 14.3019 2.91837 14.2956C2.88064 14.1509 2.86806 14.0566 2.86177 14.0252C2.86177 14.0126 2.85548 14 2.85548 13.9811C2.72969 13.3333 2.6668 12.6792 2.6668 12.0189C2.6668 6.32704 7.30202 1.69182 12.9938 1.69182C18.6857 1.69182 23.3209 6.32704 23.3209 12.0189C23.3209 12.6855 23.258 13.3459 23.1322 13.9874Z" fill="#2F3035"/>
<path d="M12.9939 4.52197C8.78631 4.52197 5.35864 7.94965 5.35864 12.1572C5.35864 16.3647 8.78631 19.7924 12.9939 19.7924C17.2014 19.7924 20.6291 16.3647 20.6291 12.1572C20.6291 7.94965 17.2014 4.52197 12.9939 4.52197ZM12.9939 18.0943C9.71713 18.0943 7.05675 15.4276 7.05675 12.1572C7.05675 8.88675 9.72342 6.22009 12.9939 6.22009C16.2643 6.22009 18.931 8.88675 18.931 12.1572C18.931 15.4276 16.2706 18.0943 12.9939 18.0943Z" fill="#2F3035"/>
</svg>
